<svg width="347" height="75" viewBox="0 0 347 75" fill="none" xmlns="http://www.w3.org/2000/svg">
<path d="M84.0195 48.355C133.984 50.8887 192.663 51.8155 270.321 51.163" stroke="#DB3333" stroke-width="2" stroke-linecap="round"/>
<path d="M83.0962 53.4421C123.435 54.1643 162.008 53.5806 267.983 48.8103" stroke="#DB3333" stroke-width="2" stroke-linecap="round"/>
<path d="M81.7959 49.2283C122.228 52.4068 169.383 50.8278 270.007 51.3685" stroke="#DB3333" stroke-width="2" stroke-linecap="round"/>
<path d="M81 51.6973C145.22 52.3434 216.984 54.8781 272.856 45" stroke="#DB3333" stroke-width="2" stroke-linecap="round"/>
<path d="M86.0562 48.8616C149.031 53.9641 212.76 56.7378 271.838 55.0518" stroke="#DB3333" stroke-width="2" stroke-linecap="round"/>
<path d="M17.4766 21.088C17.4286 20.848 17.3206 20.656 17.1526 20.512C17.0086 20.344 16.7566 20.26 16.3966 20.26H9.70056V23.608H21.2566C21.4486 23.608 21.5926 23.548 21.6886 23.428C21.7846 23.284 21.8566 22.984 21.9046 22.528H22.3366V28.684H21.9046C21.8566 28.372 21.7846 28.18 21.6886 28.108C21.5926 28.036 21.4486 28 21.2566 28H3.29256V27.568C3.74856 27.52 4.02456 27.448 4.12056 27.352C4.24056 27.232 4.30056 27.088 4.30056 26.92V10.144C4.30056 9.976 4.24056 9.844 4.12056 9.748C4.02456 9.628 3.74856 9.544 3.29256 9.496V9.064H21.2566C21.4486 9.064 21.5926 9.004 21.6886 8.884C21.7846 8.74 21.8566 8.464 21.9046 8.056H22.3366V14.32H21.9046C21.8566 13.912 21.7846 13.648 21.6886 13.528C21.5926 13.384 21.4486 13.312 21.2566 13.312H9.70056V16.3H16.3966C16.7566 16.3 17.0086 16.228 17.1526 16.084C17.3206 15.916 17.4286 15.712 17.4766 15.472H17.9086V21.088H17.4766ZM32.4883 20.692C32.4403 20.836 32.4163 21.088 32.4163 21.448C32.4163 21.688 32.6323 21.964 33.0643 22.276C33.5203 22.564 34.0963 22.84 34.7923 23.104C35.5123 23.368 36.3283 23.596 37.2403 23.788C38.1523 23.956 39.0763 24.04 40.0123 24.04C41.8123 24.04 43.1323 23.836 43.9723 23.428C44.8123 22.996 45.2323 22.384 45.2323 21.592C45.2323 21.16 44.8603 20.86 44.1163 20.692C43.3963 20.5 42.4843 20.356 41.3803 20.26C40.2763 20.14 39.0883 20.02 37.8163 19.9C36.5443 19.756 35.3563 19.516 34.2523 19.18C33.1483 18.82 32.2243 18.316 31.4803 17.668C30.7603 16.996 30.4003 16.084 30.4003 14.932C30.4003 14.02 30.6043 13.192 31.0123 12.448C31.4443 11.704 32.0323 11.068 32.7763 10.54C33.5443 10.012 34.4683 9.604 35.5483 9.316C36.6283 9.004 37.8283 8.848 39.1483 8.848C40.3723 8.848 41.5123 8.932 42.5683 9.1C43.6243 9.244 44.5603 9.412 45.3763 9.604C46.1923 9.796 46.8763 9.976 47.4283 10.144C47.9803 10.288 48.3763 10.36 48.6163 10.36C48.8563 10.36 49.0483 10.312 49.1923 10.216C49.3363 10.096 49.4683 9.964 49.5883 9.82L49.9843 9.964L47.5003 14.968L47.0683 14.752V14.356C47.0683 14.14 46.8283 13.924 46.3483 13.708C45.8923 13.468 45.3043 13.264 44.5843 13.096C43.8643 12.904 43.0603 12.748 42.1723 12.628C41.2843 12.508 40.4203 12.448 39.5803 12.448C38.0203 12.448 36.9283 12.628 36.3043 12.988C35.6803 13.348 35.3683 13.732 35.3683 14.14C35.3683 14.548 35.5843 14.86 36.0163 15.076C36.4483 15.268 37.0123 15.412 37.7083 15.508C38.4043 15.604 39.1963 15.688 40.0843 15.76C40.9723 15.808 41.8843 15.892 42.8203 16.012C43.7563 16.132 44.6683 16.3 45.5563 16.516C46.4443 16.732 47.2363 17.056 47.9323 17.488C48.6283 17.896 49.1923 18.448 49.6243 19.144C50.0563 19.816 50.2723 20.668 50.2723 21.7C50.2723 22.492 50.1043 23.272 49.7683 24.04C49.4563 24.808 48.9043 25.504 48.1123 26.128C47.3443 26.728 46.3003 27.208 44.9803 27.568C43.6843 27.928 42.0643 28.108 40.1203 28.108C38.6083 28.108 37.3003 28.036 36.1963 27.892C35.1163 27.748 34.1923 27.58 33.4243 27.388C32.6563 27.172 32.0443 26.98 31.5883 26.812C31.1563 26.644 30.8323 26.56 30.6163 26.56C30.4723 26.56 30.3403 26.608 30.2203 26.704C30.1243 26.8 30.0163 26.908 29.8963 27.028L29.4643 26.92L32.1283 20.512L32.4883 20.692ZM70.396 17.236C71.404 17.236 72.136 17.068 72.592 16.732C73.072 16.396 73.312 15.844 73.312 15.076C73.312 14.38 73.072 13.876 72.592 13.564C72.136 13.252 71.404 13.096 70.396 13.096H64.924V17.236H70.396ZM64.924 26.92C64.924 27.088 64.972 27.232 65.068 27.352C65.188 27.448 65.476 27.52 65.932 27.568V28H58.516V27.568C58.972 27.52 59.248 27.448 59.344 27.352C59.464 27.232 59.524 27.088 59.524 26.92V10.144C59.524 9.976 59.464 9.844 59.344 9.748C59.248 9.628 58.972 9.544 58.516 9.496V9.064H71.404C72.532 9.064 73.528 9.232 74.392 9.568C75.256 9.88 75.976 10.312 76.552 10.864C77.128 11.416 77.56 12.064 77.848 12.808C78.136 13.528 78.28 14.284 78.28 15.076C78.28 15.868 78.136 16.636 77.848 17.38C77.56 18.1 77.128 18.736 76.552 19.288C75.976 19.816 75.256 20.248 74.392 20.584C73.528 20.896 72.532 21.052 71.404 21.052H64.924V26.92ZM98.5837 17.056C99.6397 17.056 100.36 16.864 100.744 16.48C101.152 16.072 101.356 15.604 101.356 15.076C101.356 14.548 101.152 14.092 100.744 13.708C100.36 13.3 99.6397 13.096 98.5837 13.096H92.5357V17.056H98.5837ZM92.5357 26.92C92.5357 27.088 92.5837 27.232 92.6797 27.352C92.7997 27.448 93.0877 27.52 93.5437 27.568V28H86.1277V27.568C86.5837 27.52 86.8597 27.448 86.9557 27.352C87.0757 27.232 87.1357 27.088 87.1357 26.92V10.144C87.1357 9.976 87.0757 9.844 86.9557 9.748C86.8597 9.628 86.5837 9.544 86.1277 9.496V9.064H99.3037C101.968 9.064 103.9 9.556 105.1 10.54C106.3 11.5 106.9 13 106.9 15.04C106.9 16.696 106.408 17.992 105.424 18.928C104.464 19.864 103.24 20.536 101.752 20.944L106 26.92C106.288 27.352 106.636 27.568 107.044 27.568V28H99.5557V27.568C100.084 27.544 100.348 27.328 100.348 26.92C100.348 26.872 100.252 26.704 100.06 26.416C99.8677 26.128 99.6277 25.78 99.3397 25.372C99.0517 24.964 98.7277 24.532 98.3677 24.076C98.0317 23.596 97.6957 23.14 97.3597 22.708C97.0477 22.276 96.7717 21.892 96.5317 21.556C96.2917 21.22 96.1357 20.992 96.0637 20.872H92.5357V26.92ZM116.104 27.568C116.56 27.52 116.836 27.448 116.932 27.352C117.052 27.232 117.112 27.088 117.112 26.92V10.144C117.112 9.976 117.052 9.844 116.932 9.748C116.836 9.628 116.56 9.544 116.104 9.496V9.064H123.52V9.496C123.064 9.544 122.776 9.628 122.656 9.748C122.56 9.844 122.512 9.976 122.512 10.144V26.92C122.512 27.088 122.56 27.232 122.656 27.352C122.776 27.448 123.064 27.52 123.52 27.568V28H116.104V27.568ZM137.656 27.568C138.112 27.52 138.388 27.448 138.484 27.352C138.604 27.232 138.664 27.088 138.664 26.92V13.456H132.472C132.28 13.456 132.136 13.528 132.04 13.672C131.944 13.792 131.872 14.056 131.824 14.464H131.392V8.056H131.824C131.872 8.464 131.944 8.74 132.04 8.884C132.136 9.004 132.28 9.064 132.472 9.064H150.256C150.448 9.064 150.592 9.004 150.688 8.884C150.784 8.74 150.856 8.464 150.904 8.056H151.336V14.464H150.904C150.856 14.056 150.784 13.792 150.688 13.672C150.592 13.528 150.448 13.456 150.256 13.456H144.064V26.92C144.064 27.088 144.112 27.232 144.208 27.352C144.328 27.448 144.616 27.52 145.072 27.568V28H137.656V27.568ZM175.061 20.692C175.013 20.836 174.989 21.088 174.989 21.448C174.989 21.688 175.205 21.964 175.637 22.276C176.093 22.564 176.669 22.84 177.365 23.104C178.085 23.368 178.901 23.596 179.813 23.788C180.725 23.956 181.649 24.04 182.585 24.04C184.385 24.04 185.705 23.836 186.545 23.428C187.385 22.996 187.805 22.384 187.805 21.592C187.805 21.16 187.433 20.86 186.689 20.692C185.969 20.5 185.057 20.356 183.953 20.26C182.849 20.14 181.661 20.02 180.389 19.9C179.117 19.756 177.929 19.516 176.825 19.18C175.721 18.82 174.797 18.316 174.053 17.668C173.333 16.996 172.973 16.084 172.973 14.932C172.973 14.02 173.177 13.192 173.585 12.448C174.017 11.704 174.605 11.068 175.349 10.54C176.117 10.012 177.041 9.604 178.121 9.316C179.201 9.004 180.401 8.848 181.721 8.848C182.945 8.848 184.085 8.932 185.141 9.1C186.197 9.244 187.133 9.412 187.949 9.604C188.765 9.796 189.449 9.976 190.001 10.144C190.553 10.288 190.949 10.36 191.189 10.36C191.429 10.36 191.621 10.312 191.765 10.216C191.909 10.096 192.041 9.964 192.161 9.82L192.557 9.964L190.073 14.968L189.641 14.752V14.356C189.641 14.14 189.401 13.924 188.921 13.708C188.465 13.468 187.877 13.264 187.157 13.096C186.437 12.904 185.633 12.748 184.745 12.628C183.857 12.508 182.993 12.448 182.153 12.448C180.593 12.448 179.501 12.628 178.877 12.988C178.253 13.348 177.941 13.732 177.941 14.14C177.941 14.548 178.157 14.86 178.589 15.076C179.021 15.268 179.585 15.412 180.281 15.508C180.977 15.604 181.769 15.688 182.657 15.76C183.545 15.808 184.457 15.892 185.393 16.012C186.329 16.132 187.241 16.3 188.129 16.516C189.017 16.732 189.809 17.056 190.505 17.488C191.201 17.896 191.765 18.448 192.197 19.144C192.629 19.816 192.845 20.668 192.845 21.7C192.845 22.492 192.677 23.272 192.341 24.04C192.029 24.808 191.477 25.504 190.685 26.128C189.917 26.728 188.873 27.208 187.553 27.568C186.257 27.928 184.637 28.108 182.693 28.108C181.181 28.108 179.873 28.036 178.769 27.892C177.689 27.748 176.765 27.58 175.997 27.388C175.229 27.172 174.617 26.98 174.161 26.812C173.729 26.644 173.405 26.56 173.189 26.56C173.045 26.56 172.913 26.608 172.793 26.704C172.697 26.8 172.589 26.908 172.469 27.028L172.037 26.92L174.701 20.512L175.061 20.692ZM222.257 26.92C222.257 27.088 222.305 27.232 222.401 27.352C222.521 27.448 222.809 27.52 223.265 27.568V28H215.849V27.568C216.305 27.52 216.581 27.448 216.677 27.352C216.797 27.232 216.857 27.088 216.857 26.92V20.26H207.497V26.92C207.497 27.088 207.545 27.232 207.641 27.352C207.761 27.448 208.049 27.52 208.505 27.568V28H201.089V27.568C201.545 27.52 201.821 27.448 201.917 27.352C202.037 27.232 202.097 27.088 202.097 26.92V10.144C202.097 9.976 202.037 9.844 201.917 9.748C201.821 9.628 201.545 9.544 201.089 9.496V9.064H208.505V9.496C208.049 9.544 207.761 9.628 207.641 9.748C207.545 9.844 207.497 9.976 207.497 10.144V15.868H216.857V10.144C216.857 9.976 216.797 9.844 216.677 9.748C216.581 9.628 216.305 9.544 215.849 9.496V9.064H223.265V9.496C222.809 9.544 222.521 9.628 222.401 9.748C222.305 9.844 222.257 9.976 222.257 10.144V26.92ZM242.788 8.848C244.324 8.848 245.764 9.064 247.108 9.496C248.476 9.904 249.664 10.516 250.672 11.332C251.704 12.148 252.52 13.156 253.12 14.356C253.72 15.556 254.02 16.948 254.02 18.532C254.02 20.116 253.72 21.508 253.12 22.708C252.52 23.908 251.704 24.916 250.672 25.732C249.664 26.548 248.476 27.148 247.108 27.532C245.764 27.916 244.324 28.108 242.788 28.108C241.252 28.108 239.8 27.916 238.432 27.532C237.088 27.148 235.9 26.548 234.868 25.732C233.86 24.916 233.056 23.908 232.456 22.708C231.856 21.508 231.556 20.116 231.556 18.532C231.556 16.948 231.856 15.556 232.456 14.356C233.056 13.156 233.86 12.148 234.868 11.332C235.9 10.516 237.088 9.904 238.432 9.496C239.8 9.064 241.252 8.848 242.788 8.848ZM242.788 13.24C241.996 13.24 241.24 13.36 240.52 13.6C239.824 13.84 239.2 14.188 238.648 14.644C238.12 15.076 237.688 15.628 237.352 16.3C237.04 16.948 236.884 17.692 236.884 18.532C236.884 19.372 237.04 20.128 237.352 20.8C237.688 21.448 238.12 22 238.648 22.456C239.2 22.888 239.824 23.224 240.52 23.464C241.24 23.704 241.996 23.824 242.788 23.824C243.58 23.824 244.324 23.704 245.02 23.464C245.74 23.224 246.364 22.888 246.892 22.456C247.444 22 247.876 21.448 248.188 20.8C248.524 20.128 248.692 19.372 248.692 18.532C248.692 17.692 248.524 16.948 248.188 16.3C247.876 15.628 247.444 15.076 246.892 14.644C246.364 14.188 245.74 13.84 245.02 13.6C244.324 13.36 243.58 13.24 242.788 13.24ZM263.297 10.144C263.297 9.976 263.237 9.844 263.117 9.748C263.021 9.628 262.745 9.544 262.289 9.496V9.064H270.965V9.496C270.557 9.52 270.281 9.58 270.137 9.676C270.017 9.748 269.957 9.844 269.957 9.964C269.957 10.012 270.113 10.228 270.425 10.612C270.737 10.996 271.145 11.476 271.649 12.052C272.153 12.628 272.717 13.276 273.341 13.996C273.989 14.692 274.637 15.4 275.285 16.12C275.933 16.816 276.557 17.488 277.157 18.136C277.757 18.76 278.273 19.3 278.705 19.756V10.144C278.705 9.736 278.453 9.52 277.949 9.496V9.064H284.537V9.496C284.081 9.544 283.793 9.628 283.673 9.748C283.577 9.844 283.529 9.976 283.529 10.144V26.92C283.529 27.088 283.577 27.232 283.673 27.352C283.793 27.448 284.081 27.52 284.537 27.568V28H277.697V27.568C278.033 27.568 278.249 27.532 278.345 27.46C278.465 27.388 278.525 27.292 278.525 27.172C278.525 27.1 278.489 27.016 278.417 26.92C278.345 26.8 278.189 26.608 277.949 26.344C277.709 26.08 277.349 25.708 276.869 25.228C276.413 24.724 275.801 24.064 275.033 23.248C274.265 22.408 273.317 21.376 272.189 20.152C271.061 18.904 269.705 17.392 268.121 15.616V26.92C268.121 27.088 268.169 27.232 268.265 27.352C268.385 27.448 268.673 27.52 269.129 27.568V28H262.289V27.568C262.745 27.52 263.021 27.448 263.117 27.352C263.237 27.232 263.297 27.088 263.297 26.92V10.144ZM308.092 21.088C308.044 20.848 307.936 20.656 307.768 20.512C307.624 20.344 307.372 20.26 307.012 20.26H300.316V23.608H311.872C312.064 23.608 312.208 23.548 312.304 23.428C312.4 23.284 312.472 22.984 312.52 22.528H312.952V28.684H312.52C312.472 28.372 312.4 28.18 312.304 28.108C312.208 28.036 312.064 28 311.872 28H293.908V27.568C294.364 27.52 294.64 27.448 294.736 27.352C294.856 27.232 294.916 27.088 294.916 26.92V10.144C294.916 9.976 294.856 9.844 294.736 9.748C294.64 9.628 294.364 9.544 293.908 9.496V9.064H311.872C312.064 9.064 312.208 9.004 312.304 8.884C312.4 8.74 312.472 8.464 312.52 8.056H312.952V14.32H312.52C312.472 13.912 312.4 13.648 312.304 13.528C312.208 13.384 312.064 13.312 311.872 13.312H300.316V16.3H307.012C307.372 16.3 307.624 16.228 307.768 16.084C307.936 15.916 308.044 15.712 308.092 15.472H308.524V21.088H308.092ZM322.528 10.144C322.528 9.976 322.468 9.844 322.348 9.748C322.252 9.628 321.976 9.544 321.52 9.496V9.064H330.196V9.496C329.788 9.52 329.512 9.58 329.368 9.676C329.248 9.748 329.188 9.844 329.188 9.964C329.188 10.012 329.344 10.228 329.656 10.612C329.968 10.996 330.376 11.476 330.88 12.052C331.384 12.628 331.948 13.276 332.572 13.996C333.22 14.692 333.868 15.4 334.516 16.12C335.164 16.816 335.788 17.488 336.388 18.136C336.988 18.76 337.504 19.3 337.936 19.756V10.144C337.936 9.736 337.684 9.52 337.18 9.496V9.064H343.768V9.496C343.312 9.544 343.024 9.628 342.904 9.748C342.808 9.844 342.76 9.976 342.76 10.144V26.92C342.76 27.088 342.808 27.232 342.904 27.352C343.024 27.448 343.312 27.52 343.768 27.568V28H336.928V27.568C337.264 27.568 337.48 27.532 337.576 27.46C337.696 27.388 337.756 27.292 337.756 27.172C337.756 27.1 337.72 27.016 337.648 26.92C337.576 26.8 337.42 26.608 337.18 26.344C336.94 26.08 336.58 25.708 336.1 25.228C335.644 24.724 335.032 24.064 334.264 23.248C333.496 22.408 332.548 21.376 331.42 20.152C330.292 18.904 328.936 17.392 327.352 15.616V26.92C327.352 27.088 327.4 27.232 327.496 27.352C327.616 27.448 327.904 27.52 328.36 27.568V28H321.52V27.568C321.976 27.52 322.252 27.448 322.348 27.352C322.468 27.232 322.528 27.088 322.528 26.92V10.144ZM94.7021 45.056C94.4501 42.932 93.6221 39.728 92.6141 37.244L90.7781 37.676C91.714 40.16 92.5421 43.436 92.7221 45.56L94.7021 45.056ZM97.9061 49.412H101.866V46.892H97.9061V34.976H95.4581V46.892H90.3821V49.412H95.0261C93.9101 53.372 91.858 58.052 89.986 60.608C90.4541 61.292 91.1381 62.516 91.4261 63.308C92.8301 61.148 94.3421 57.764 95.4581 54.272V67.7H97.9061V53.516C98.9861 55.388 100.282 57.764 100.75 58.952L102.55 56.9C101.866 55.784 98.878 51.428 97.9061 50.204V49.412ZM100.03 45.596C100.93 43.616 102.046 40.268 102.874 37.604L100.678 37.064C100.174 39.44 99.1661 42.968 98.3741 45.056L100.03 45.596ZM107.95 59.996V57.332H118.318V59.996H107.95ZM118.318 52.724V55.388H107.95V52.724H118.318ZM120.838 50.672H105.394V67.736H107.95V61.904H118.318V65C118.318 65.396 118.21 65.54 117.742 65.54C117.31 65.54 115.834 65.54 114.214 65.504C114.574 66.152 114.862 67.052 114.97 67.736C117.202 67.736 118.678 67.7 119.614 67.34C120.586 66.944 120.838 66.296 120.838 65V50.672ZM114.214 46.46V44.012H121.522V42.068H114.214V39.872H122.314V37.82H114.214V34.94H111.658V37.82H104.134V39.872H111.658V42.068H105.034V44.012H111.658V46.46H103.126V48.512H123.214V46.46H114.214ZM141.394 41.492L140.89 41.6H138.01V34.904H135.418V41.6H130.522V44.048H139.558C137.254 48.8 133.15 53.3 129.226 55.856C129.622 56.36 130.342 57.584 130.594 58.268C132.214 57.152 133.834 55.712 135.418 54.02V67.664H138.01V52.256C139.342 53.588 141.034 55.424 141.79 56.396L143.338 54.2C142.618 53.48 139.99 51.068 138.694 50.06C140.386 47.72 141.862 45.128 142.87 42.464L141.394 41.492ZM154.102 55.208V50.456H159.574V55.208H154.102ZM146.326 55.208V50.456H151.546V55.208H146.326ZM151.546 43.508V48.116H146.326V43.508H151.546ZM159.574 43.508V48.116H154.102V43.508H159.574ZM154.102 41.06V34.868H151.546V41.06H143.842V59.168H146.326V57.62H151.546V67.736H154.102V57.62H159.574V58.988H162.094V41.06H154.102ZM199.234 34.94V53.048C199.234 53.588 199.054 53.732 198.406 53.768C197.794 53.768 195.598 53.804 193.222 53.732C193.654 54.524 194.086 55.676 194.194 56.468C197.218 56.468 199.198 56.432 200.35 55.964C201.538 55.496 201.934 54.74 201.934 53.084V34.94H199.234ZM206.974 40.304C210.07 44.012 213.346 49.052 214.57 52.292L217.234 50.852C215.83 47.576 212.446 42.68 209.386 39.08L206.974 40.304ZM209.35 50.06C206.29 59.24 199.45 63.56 186.778 65.216C187.318 65.864 187.93 67.016 188.182 67.808C201.466 65.756 208.738 60.968 212.086 50.924L209.35 50.06ZM191.314 39.404C189.982 43.328 187.282 48.116 184.114 51.176C184.834 51.5 185.842 52.256 186.454 52.76C189.658 49.52 192.502 44.444 194.23 40.124L191.314 39.404ZM232.606 56.936V49.808H240.67V56.936H232.606ZM256.402 56.936H243.37V49.808H253.918V47.288H243.37V41.816H254.746V39.224H233.29C233.866 38 234.442 36.704 234.946 35.444L232.246 34.796C230.554 39.62 227.53 44.264 224.146 47.216C224.83 47.576 225.946 48.476 226.45 48.908C228.394 47.036 230.302 44.588 231.922 41.816H240.67V47.288H229.942V56.936H224.038V59.528H240.67V67.772H243.37V59.528H256.402V56.936Z" fill="black"/>
</svg>
