<svg width="18" height="16" viewBox="0 0 18 16" fill="none" xmlns="http://www.w3.org/2000/svg">
<path d="M3.7291 10.9842V5.97063H2.62751H1.52594L0.765308 4.95742C0.346958 4.40026 0.00257313 3.92195 8.1286e-06 3.89468C-0.00299187 3.86815 0.824798 3.13544 1.83859 2.2683L3.68186 0.691589L4.7375 0.345795C5.31811 0.155652 5.81581 0 5.84351 0C5.87126 0 5.97971 0.169212 6.08465 0.376011C6.31246 0.824984 6.59914 1.15692 7.00462 1.44125C8.68185 2.61734 11.1661 2.02347 11.9614 0.256177C12.0249 0.114675 12.0963 0 12.1202 0C12.144 0 12.6411 0.153293 13.2246 0.340636L14.2854 0.681271L16.1469 2.26624C17.1707 3.13809 18.0046 3.86594 18 3.88378C17.9955 3.90146 17.6472 4.37756 17.2263 4.94135L16.461 5.96636L15.3478 5.9811L14.2347 5.99584L14.2227 10.9979L14.2107 16H8.96968H3.72871L3.7291 10.9842ZM13.8404 10.6195V5.60597H15.0426H16.2447L16.7666 4.91099C17.0537 4.52864 17.337 4.15263 17.3963 4.07525L17.504 3.93522L15.7923 2.47259L14.0807 1.00997L13.1853 0.728144C12.675 0.56748 12.2832 0.466218 12.2743 0.492603C12.2167 0.662257 11.8713 1.13938 11.6386 1.37065C10.8963 2.10837 9.95154 2.45343 8.81092 2.40332C8.13864 2.37384 7.82914 2.29866 7.27726 2.0307C6.61456 1.70907 6.05735 1.19245 5.76454 0.628503C5.71534 0.534169 5.66569 0.45649 5.65414 0.45649C5.64214 0.45649 5.24254 0.581778 4.76524 0.734629L3.8974 1.01292L2.38697 2.30205C1.55624 3.01104 0.786698 3.6702 0.676868 3.76704L0.477188 3.94303L1.10611 4.77494L1.73501 5.60671H2.91757H4.10011V10.6201V15.6337H8.97024H13.8403L13.8404 10.6195Z" fill="black"/>
</svg>
