<svg width="40" height="26" viewBox="0 0 40 26" fill="none" xmlns="http://www.w3.org/2000/svg">
<path d="M3.58333 0.446751C3.3311 0.447053 3.07888 0.44868 2.82667 0.451633C2.57667 0.459768 2.32167 0.472785 2.07333 0.516715C1.69803 0.574615 1.34218 0.718676 1.03504 0.937047C0.727905 1.15542 0.478268 1.44186 0.306667 1.7728C0.19 1.99733 0.116667 2.22512 0.0733333 2.47244C0.0266667 2.71324 0.0116667 2.96055 0.00666667 3.20461C0.00325468 3.31794 0.00103234 3.43129 0 3.54466L0 22.3485C0 22.4624 0.00333333 22.5731 0.005 22.6853C0.0116667 22.9294 0.0266667 23.1783 0.0716667 23.4208C0.116667 23.6648 0.191667 23.8942 0.308333 24.1188C0.538158 24.5605 0.905862 24.9195 1.35833 25.1438C1.58833 25.2577 1.82167 25.3309 2.075 25.3749C2.32167 25.4188 2.575 25.4334 2.825 25.4399L3.17167 25.4448H36.8283L37.1733 25.4399C37.4233 25.4334 37.6783 25.4188 37.9267 25.3749C38.1767 25.3309 38.4117 25.2593 38.64 25.1454C39.0936 24.9213 39.4621 24.5616 39.6917 24.1188C39.8083 23.8942 39.8833 23.6665 39.9267 23.4191C39.9717 23.1783 39.9867 22.931 39.9933 22.687C39.9967 22.5731 39.9983 22.4624 39.9983 22.3485L40 21.9483V3.54304C40 3.42914 39.9967 3.3185 39.9933 3.20624C39.9902 2.9598 39.9679 2.71395 39.9267 2.47081C39.8469 1.98083 39.6106 1.52801 39.2514 1.17705C38.8922 0.826094 38.4285 0.594972 37.9267 0.516715C37.6776 0.476621 37.4258 0.454866 37.1733 0.451633C36.9217 0.444679 36.67 0.443051 36.4183 0.446751H3.58333ZM3.58333 1.2798H36.82C36.93 1.2798 37.0383 1.28306 37.1483 1.28469C37.34 1.29119 37.565 1.30096 37.7733 1.33675C37.955 1.36929 38.1067 1.4181 38.2517 1.48969C38.544 1.63457 38.7816 1.8665 38.93 2.15191C39.0064 2.2994 39.0592 2.45742 39.0867 2.6205C39.1233 2.82062 39.1333 3.04028 39.1383 3.22902C39.1417 3.33477 39.1433 3.44053 39.1433 3.54955V22.3453C39.1433 22.451 39.1433 22.5568 39.1383 22.6642C39.1333 22.8513 39.1233 23.0709 39.085 23.2743C39.0489 23.5138 38.9544 23.7412 38.8094 23.9374C38.6643 24.1337 38.473 24.293 38.2517 24.4019C38.1016 24.476 37.9409 24.5276 37.775 24.5548C37.5693 24.5868 37.3616 24.6042 37.1533 24.6069L36.82 24.6118H3.17667C3.06667 24.6118 2.955 24.6085 2.85 24.6069C2.64065 24.6042 2.43178 24.5868 2.225 24.5548C2.04333 24.5223 1.89167 24.4735 1.745 24.4019C1.45264 24.2576 1.21545 24.0254 1.06833 23.7397C0.992181 23.5921 0.93936 23.4341 0.911667 23.2711C0.878567 23.0703 0.86074 22.8675 0.858333 22.6642C0.856098 22.5574 0.854987 22.4505 0.855 22.3437V3.54792C0.855 3.44216 0.855 3.33477 0.858333 3.22739C0.865 3.0419 0.875 2.82388 0.911667 2.61724C0.945 2.44152 0.995 2.29346 1.06833 2.15028C1.21684 1.86534 1.45443 1.63397 1.74667 1.48969C1.89755 1.41605 2.05872 1.36451 2.225 1.33675C2.43333 1.30096 2.65833 1.28957 2.85 1.28469C2.95833 1.28143 3.06833 1.28143 3.17667 1.2798H3.58333ZM11.4333 7.29991C10.9333 7.32594 10.32 7.62369 9.96667 8.04184C9.64833 8.3998 9.36667 8.98554 9.44 9.53548C10.0033 9.58429 10.565 9.26051 10.92 8.85537C11.2617 8.43559 11.495 7.87426 11.4333 7.30153V7.29991ZM15.1117 7.98327V16.9207H16.5317V13.8667H18.4983C20.295 13.8667 21.5567 12.6643 21.5567 10.9185C21.5567 9.17753 20.32 7.98164 18.5433 7.98164L15.1117 7.98327ZM16.5317 9.15312H18.1683C19.4 9.15312 20.1033 9.79744 20.1033 10.925C20.1033 12.0509 19.4 12.7017 18.1633 12.7017H16.5317V9.15312ZM11.275 9.64124C10.525 9.65751 9.89167 10.0968 9.525 10.0968C9.13333 10.0968 8.53667 9.66727 7.89 9.67866C7.46935 9.68891 7.05878 9.8065 6.69912 10.0197C6.33947 10.233 6.04328 10.5344 5.84 10.8941C4.96167 12.3714 5.60833 14.5631 6.46333 15.7671C6.87833 16.3626 7.37833 17.0183 8.03667 16.9939C8.65833 16.9711 8.90333 16.6002 9.65833 16.6002C10.415 16.6002 10.635 16.9939 11.2917 16.9825C11.975 16.9711 12.4033 16.387 12.8167 15.7899C13.2933 15.1114 13.4883 14.4557 13.5 14.4215C13.4883 14.4085 12.1833 13.9204 12.1717 12.4544C12.1583 11.2276 13.1967 10.6435 13.245 10.6077C12.6583 9.76164 11.745 9.66727 11.4283 9.64287C11.3773 9.63974 11.3261 9.64028 11.275 9.64124ZM24.9483 10.2872C23.2983 10.2872 22.2717 11.1544 22.195 12.3308H23.49C23.61 11.7483 24.105 11.3773 24.8983 11.3773C25.735 11.3773 26.2367 11.8101 26.2367 12.5341V13.0369L24.4083 13.141C22.8233 13.2289 21.9283 13.9285 21.9283 15.0675C21.9283 16.2389 22.8417 17.0313 24.1483 17.0313C25.025 17.0313 25.8683 16.5741 26.255 15.8485H26.2867V16.9207H27.6V12.43C27.6 11.1235 26.5667 10.2872 24.9483 10.2872ZM28.1817 10.4043L30.5917 16.9272C30.5917 16.9321 30.47 17.3177 30.47 17.3291C30.2617 17.9962 29.92 18.2581 29.285 18.2581C29.17 18.2581 28.9417 18.2581 28.84 18.2337V19.3173C28.94 19.3352 29.285 19.3482 29.3983 19.3482C30.7817 19.3482 31.4417 18.8406 32.0117 17.2607L34.5117 10.4043H33.065L31.3783 15.7069H31.3533L29.665 10.4027L28.1817 10.4043ZM26.2367 13.966V14.4801C26.2367 15.3278 25.4867 15.9721 24.53 15.9721C23.7933 15.9721 23.3117 15.6011 23.3117 15.03C23.3117 14.4736 23.775 14.1189 24.5933 14.0652L26.2367 13.966Z" fill="black"/>
</svg>
