<svg width="42" height="27" viewBox="0 0 42 27" fill="none" xmlns="http://www.w3.org/2000/svg">
<path d="M38 1H4C2.34315 1 1 2.34315 1 4V23C1 24.6569 2.34315 26 4 26H38C39.6569 26 41 24.6569 41 23V4C41 2.34315 39.6569 1 38 1Z" fill="white" stroke="#AEAEAE" stroke-width="0.5"/>
<path d="M24.0262 13.4999C24.0262 18.4571 19.9047 22.4749 14.8206 22.4749C9.73656 22.4749 5.61548 18.4569 5.61548 13.4999C5.61548 8.54325 9.73661 4.5249 14.8206 4.5249C19.9046 4.5249 24.0262 8.54345 24.0262 13.4999Z" fill="#D9222A"/>
<path d="M27.1789 4.52466C24.8005 4.52466 22.6331 5.40446 20.9994 6.84801C20.6666 7.14246 20.3559 7.45986 20.0699 7.79781H21.9298C22.1844 8.09966 22.4188 8.41716 22.6316 8.74841H19.3683C19.172 9.05451 18.9949 9.37186 18.8379 9.69881H23.1616C23.3101 10.0081 23.4402 10.3253 23.5514 10.649H18.4482C18.341 10.9607 18.2517 11.278 18.1807 11.5994H23.8186C23.9565 12.2239 24.0261 12.861 24.0259 13.4998C24.0259 14.4966 23.859 15.4554 23.5513 16.3509H18.4481C18.5591 16.6747 18.6891 16.9921 18.8376 17.3013H23.1615C23.0045 17.6283 22.8272 17.9457 22.6309 18.2519H19.3681C19.5808 18.5829 19.8152 18.9002 20.0699 19.2017H21.9293C21.6437 19.5403 21.3329 19.8581 20.9996 20.1524C22.6333 21.5957 24.8005 22.4751 27.1791 22.4751C32.2631 22.4751 36.3847 18.457 36.3847 13.5001C36.3847 8.54361 32.2631 4.52506 27.1791 4.52506" fill="#EE9F2D"/>
<path d="M35.1575 18.5031C35.1575 18.3431 35.2904 18.213 35.4547 18.213C35.619 18.213 35.752 18.3431 35.752 18.5031C35.752 18.663 35.619 18.7931 35.4547 18.7931C35.2904 18.7931 35.1575 18.663 35.1575 18.5031ZM35.4547 18.7235C35.5796 18.7234 35.6807 18.6248 35.6808 18.5031C35.6808 18.3815 35.5797 18.283 35.455 18.2829H35.4547C35.3302 18.2827 35.2291 18.381 35.2289 18.5024V18.5031C35.2288 18.6248 35.3298 18.7234 35.4545 18.7235C35.4546 18.7235 35.4547 18.7235 35.4547 18.7235ZM35.4146 18.6305H35.3537V18.3757H35.4639C35.487 18.3757 35.5105 18.3757 35.5308 18.3884C35.552 18.4023 35.564 18.4269 35.564 18.4523C35.564 18.4809 35.5466 18.5075 35.5186 18.5179L35.5667 18.6304H35.4993L35.4594 18.5296H35.4147L35.4146 18.6305ZM35.4146 18.486H35.4483C35.4609 18.486 35.4742 18.487 35.4856 18.481C35.4956 18.4747 35.5007 18.463 35.5007 18.4518C35.5005 18.4413 35.495 18.4317 35.486 18.4259C35.4754 18.4194 35.4585 18.4208 35.4471 18.4208H35.4146V18.486ZM12.671 14.4828C12.5661 14.4709 12.52 14.4678 12.4479 14.4678C11.8815 14.4678 11.5947 14.6571 11.5947 15.0312C11.5947 15.2617 11.7346 15.4084 11.953 15.4084C12.3601 15.4084 12.6535 15.0305 12.671 14.4828ZM13.3977 16.1326H12.5697L12.5887 15.7488C12.3361 16.0521 11.9992 16.1963 11.5413 16.1963C10.9996 16.1963 10.6282 15.7838 10.6282 15.1848C10.6282 14.2836 11.2742 13.7578 12.3829 13.7578C12.4962 13.7578 12.6415 13.7677 12.7902 13.7863C12.8211 13.6642 12.8293 13.6119 12.8293 13.5462C12.8293 13.3008 12.6551 13.2094 12.1883 13.2094C11.6994 13.204 11.2962 13.3229 11.1306 13.376C11.141 13.3146 11.269 12.5431 11.269 12.5431C11.7671 12.4008 12.0955 12.3472 12.4652 12.3472C13.3233 12.3472 13.7778 12.7229 13.7769 13.4328C13.7786 13.6231 13.7463 13.8578 13.696 14.1664C13.6093 14.7031 13.4231 15.8524 13.3977 16.1326ZM10.2101 16.1326H9.21079L9.7832 12.6328L8.505 16.1326H7.82402L7.73982 12.6528L7.13812 16.1326H6.20264L6.98402 11.5798H8.421L8.50818 14.1282L9.38469 11.5798H10.983L10.2101 16.1326ZM28.4137 14.4828C28.3092 14.4709 28.2629 14.4678 28.191 14.4678C27.6248 14.4678 27.338 14.6571 27.338 15.0312C27.338 15.2617 27.4778 15.4084 27.6961 15.4084C28.1033 15.4084 28.3968 15.0305 28.4137 14.4828ZM29.1411 16.1326H28.3131L28.3319 15.7488C28.0793 16.0521 27.7421 16.1963 27.2846 16.1963C26.7428 16.1963 26.3718 15.7838 26.3718 15.1848C26.3718 14.2836 27.0173 13.7578 28.1263 13.7578C28.2395 13.7578 28.3846 13.7677 28.5331 13.7863C28.5641 13.6642 28.5723 13.6119 28.5723 13.5462C28.5723 13.3008 28.3983 13.2094 27.9315 13.2094C27.4426 13.204 27.0398 13.3229 26.8736 13.376C26.884 13.3146 27.0125 12.5431 27.0125 12.5431C27.5105 12.4008 27.8387 12.3472 28.208 12.3472C29.0665 12.3472 29.521 12.7229 29.5202 13.4328C29.5218 13.6231 29.4896 13.8578 29.4392 14.1664C29.3528 14.7031 29.1663 15.8524 29.1411 16.1326ZM17.839 16.0764C17.5656 16.1603 17.3523 16.1963 17.1211 16.1963C16.6102 16.1963 16.3314 15.91 16.3314 15.3829C16.3241 15.2194 16.4049 14.7889 16.4684 14.3961C16.5261 14.0502 16.9017 11.8696 16.9017 11.8696H17.895L17.779 12.43H18.3789L18.2435 13.3198H17.6413C17.5259 14.024 17.3616 14.9011 17.3597 15.0173C17.3597 15.2081 17.4642 15.2915 17.7018 15.2915C17.8157 15.2915 17.9039 15.2801 17.9713 15.2565L17.839 16.0764ZM20.8848 16.0464C20.5436 16.1481 20.2143 16.1972 19.8654 16.1964C18.7534 16.1953 18.1737 15.6291 18.1737 14.5448C18.1737 13.2791 18.9112 12.3474 19.9121 12.3474C20.7312 12.3474 21.2542 12.8691 21.2542 13.6872C21.2542 13.9587 21.2183 14.2237 21.1318 14.5978H19.1536C19.0867 15.1349 19.4393 15.3587 20.017 15.3587C20.3727 15.3587 20.6934 15.2872 21.05 15.1255L20.8848 16.0464ZM20.3264 13.8514C20.3319 13.7742 20.4318 13.1905 19.8642 13.1905C19.5478 13.1905 19.3215 13.4257 19.2294 13.8514H20.3264ZM13.9972 13.6005C13.9972 14.0689 14.2301 14.3918 14.7583 14.6343C15.163 14.8198 15.2256 14.8748 15.2256 15.0428C15.2256 15.2737 15.0472 15.3779 14.6517 15.3779C14.3536 15.3779 14.0763 15.3325 13.7564 15.2318C13.7564 15.2318 13.625 16.0478 13.619 16.0869C13.8462 16.1352 14.0487 16.1799 14.6589 16.1964C15.7135 16.1964 16.2004 15.8049 16.2004 14.9589C16.2004 14.4501 15.9965 14.1516 15.496 13.9272C15.0769 13.7397 15.0289 13.6978 15.0289 13.5249C15.0289 13.3247 15.1949 13.2226 15.518 13.2226C15.7141 13.2226 15.9821 13.243 16.2359 13.2782L16.3782 12.4195C16.1195 12.3795 15.7271 12.3474 15.4987 12.3474C14.3807 12.3474 13.9938 12.9168 13.9972 13.6005ZM25.7454 12.4447C26.0229 12.4447 26.2817 12.5158 26.6383 12.6908L26.8018 11.7026C26.6555 11.6466 26.1401 11.3176 25.7035 11.3176C25.0347 11.3176 24.4694 11.6412 24.0717 12.1751C23.4918 11.9878 23.2534 12.3664 22.9611 12.7435L22.7015 12.8024C22.7211 12.6783 22.7388 12.5549 22.7328 12.4301H21.8151C21.6897 13.576 21.4675 14.7365 21.2935 15.8839L21.2482 16.1327H22.248C22.4148 15.0755 22.5063 14.3987 22.5619 13.9406L22.9383 13.7364C22.9946 13.5325 23.1706 13.4635 23.5238 13.4718C23.4763 13.7222 23.4526 13.9764 23.4529 14.231C23.4529 15.4423 24.1231 16.1964 25.199 16.1964C25.4762 16.1964 25.714 16.1608 26.0822 16.0635L26.2581 15.0256C25.9269 15.1846 25.655 15.2594 25.4089 15.2594C24.8279 15.2594 24.4764 14.8413 24.4764 14.1502C24.4764 13.1476 24.9993 12.4447 25.7454 12.4447Z" fill="black"/>
<path d="M10.4979 15.8619H9.49837L10.0712 12.3625L8.79299 15.8619H8.11181L8.02761 12.3825L7.42591 15.8619H6.49048L7.27186 11.3098H8.70884L8.74925 14.1279L9.71868 11.3098H11.2708L10.4979 15.8619Z" fill="white"/>
<path d="M34.2061 11.5801L33.9845 12.8955C33.7112 12.5449 33.4176 12.2911 33.03 12.2911C32.5258 12.2911 32.0668 12.6639 31.7664 13.2124C31.348 13.1278 30.9152 12.9842 30.9152 12.9842L30.915 12.9876C30.9488 12.6809 30.9623 12.4938 30.9592 12.4303H30.0413C29.9163 13.5761 29.694 14.7367 29.5204 15.884L29.4746 16.1328H30.4742C30.6092 15.278 30.7126 14.5683 30.7887 14.0053C31.1301 13.7045 31.3011 13.442 31.6462 13.4595C31.4934 13.8197 31.4039 14.2346 31.4039 14.6603C31.4039 15.586 31.8842 16.1966 32.6107 16.1966C32.977 16.1966 33.2579 16.0735 33.5321 15.788L33.4853 16.1322H34.4307L35.1918 11.5801L34.2061 11.5801ZM32.9563 15.2771C32.6161 15.2771 32.4444 15.0317 32.4444 14.5473C32.4444 13.8196 32.7659 13.3036 33.2193 13.3036C33.5627 13.3036 33.7486 13.5588 33.7486 14.029C33.7486 14.763 33.4219 15.2771 32.9563 15.2771Z" fill="black"/>
<path d="M12.9584 14.2129C12.8537 14.2011 12.8073 14.198 12.7356 14.198C12.1691 14.198 11.8825 14.3873 11.8825 14.7613C11.8825 14.9915 12.0225 15.1386 12.2404 15.1386C12.648 15.1386 12.9413 14.7607 12.9584 14.2129ZM13.6855 15.8621H12.8575L12.8763 15.479C12.624 15.7817 12.2866 15.9265 11.8291 15.9265C11.2872 15.9265 10.916 15.514 10.916 14.915C10.916 14.0134 11.5618 13.4879 12.6707 13.4879C12.784 13.4879 12.9293 13.4979 13.0778 13.5165C13.1088 13.3944 13.1169 13.3421 13.1169 13.2761C13.1169 13.0306 12.943 12.9396 12.4761 12.9396C11.987 12.9342 11.584 13.0532 11.4182 13.1057C11.4287 13.0444 11.5567 12.2738 11.5567 12.2738C12.0545 12.1309 12.3833 12.0774 12.7526 12.0774C13.6109 12.0774 14.0656 12.4532 14.0648 13.1626C14.0663 13.3536 14.0338 13.5882 13.9836 13.8963C13.897 14.4325 13.7108 15.5825 13.6855 15.8621ZM27.0896 11.4325L26.926 12.4209C26.5695 12.2461 26.3106 12.1749 26.0333 12.1749C25.2871 12.1749 24.7641 12.8778 24.7641 13.8802C24.7641 14.5712 25.1157 14.9892 25.6966 14.9892C25.9427 14.9892 26.2143 14.9146 26.5455 14.7555L26.3701 15.793C26.0017 15.8908 25.7641 15.9265 25.4867 15.9265C24.411 15.9265 23.7405 15.1723 23.7405 13.961C23.7405 12.3335 24.6666 11.196 25.9912 11.196C26.4274 11.1961 26.943 11.3765 27.0896 11.4325ZM28.7021 14.2129C28.5974 14.2011 28.5512 14.198 28.4791 14.198C27.9129 14.198 27.6262 14.3873 27.6262 14.7613C27.6262 14.9915 27.7661 15.1386 27.9843 15.1386C28.3913 15.1386 28.6849 14.7607 28.7021 14.2129ZM29.4291 15.8621H28.6009L28.62 15.479C28.3674 15.7817 28.0302 15.9265 27.5727 15.9265C27.031 15.9265 26.6597 15.514 26.6597 14.915C26.6597 14.0134 27.3057 13.4879 28.4142 13.4879C28.5277 13.4879 28.6727 13.4979 28.8214 13.5165C28.8522 13.3944 28.8605 13.3421 28.8605 13.2761C28.8605 13.0306 28.6865 12.9396 28.2198 12.9396C27.7309 12.9342 27.3277 13.0532 27.1618 13.1057C27.1723 13.0444 27.3005 12.2738 27.3005 12.2738C27.7984 12.1309 28.1269 12.0774 28.4962 12.0774C29.3547 12.0774 29.8092 12.4532 29.8081 13.1626C29.8098 13.3536 29.7775 13.5882 29.7271 13.8963C29.6409 14.4325 29.4542 15.5825 29.4291 15.8621ZM18.1271 15.8061C17.8533 15.89 17.6401 15.9265 17.4091 15.9265C16.8983 15.9265 16.6194 15.6402 16.6194 15.1131C16.6124 14.9491 16.6932 14.5191 16.7566 14.1263C16.8141 13.78 17.1897 11.5996 17.1897 11.5996H18.1829L18.067 12.1602H18.5768L18.4411 13.0496H17.9296C17.8142 13.7542 17.6494 14.6306 17.6478 14.7471C17.6478 14.9386 17.7524 15.0212 17.9899 15.0212C18.1038 15.0212 18.1918 15.0104 18.2593 14.9866L18.1271 15.8061ZM21.1728 15.7765C20.8318 15.8781 20.5021 15.9271 20.1533 15.9265C19.0413 15.9254 18.4617 15.3592 18.4617 14.2748C18.4617 13.0088 19.1991 12.0773 20.2001 12.0773C21.0191 12.0773 21.5422 12.5988 21.5422 13.4173C21.5422 13.689 21.5063 13.954 21.42 14.3279H19.4418C19.3748 14.865 19.7274 15.089 20.3052 15.089C20.6606 15.089 20.9815 15.0173 21.338 14.8552L21.1728 15.7765ZM20.6143 13.5809C20.6202 13.504 20.7199 12.92 20.1521 12.92C19.8358 12.92 19.6096 13.1559 19.5174 13.5809H20.6143ZM14.285 13.3306C14.285 13.799 14.518 14.1215 15.0462 14.3644C15.4509 14.5498 15.5134 14.605 15.5134 14.773C15.5134 15.0038 15.3348 15.1079 14.9397 15.1079C14.6415 15.1079 14.3641 15.0625 14.044 14.9619C14.044 14.9619 13.913 15.7779 13.907 15.8169C14.1337 15.8653 14.3365 15.9094 14.9467 15.9265C16.0014 15.9265 16.4882 15.535 16.4882 14.6892C16.4882 14.1802 16.2846 13.8817 15.7838 13.6573C15.3649 13.4694 15.3164 13.4281 15.3164 13.255C15.3164 13.055 15.4829 12.9521 15.8058 12.9521C16.0017 12.9521 16.2697 12.9731 16.5239 13.0083L16.666 12.1494C16.4074 12.1094 16.0151 12.0773 15.7867 12.0773C14.6686 12.0773 14.2818 12.6463 14.285 13.3306ZM34.7184 15.8621H33.7728L33.8199 15.5175C33.5456 15.8033 33.2647 15.9265 32.8984 15.9265C32.172 15.9265 31.6919 15.3158 31.6919 14.3902C31.6919 13.1587 32.4365 12.1206 33.3179 12.1206C33.7055 12.1206 33.9989 12.2749 34.272 12.6254L34.4937 11.31H35.4794L34.7184 15.8621ZM33.2442 15.0067C33.7096 15.0067 34.0365 14.4925 34.0365 13.759C34.0365 13.2888 33.8504 13.0336 33.507 13.0336C33.0539 13.0336 32.7319 13.5493 32.7319 14.2773C32.7319 14.7616 32.9041 15.0067 33.2442 15.0067ZM30.3292 12.1602C30.2041 13.3061 29.9819 14.4667 29.8081 15.6134L29.7624 15.8622H30.7619C31.1194 13.5984 31.2059 13.1563 31.7664 13.2117C31.8557 12.7484 32.0219 12.3426 32.1459 12.1378C31.7272 12.0528 31.4935 12.2834 31.1875 12.7215C31.2116 12.5321 31.2559 12.3482 31.2471 12.1603L30.3292 12.1602ZM22.1026 12.1602C21.9771 13.3061 21.7549 14.4667 21.5812 15.6134L21.5357 15.8622H22.5357C22.8927 13.5984 22.979 13.1563 23.5392 13.2117C23.629 12.7484 23.7952 12.3426 23.9187 12.1378C23.5005 12.0528 23.2665 12.2834 22.9608 12.7215C22.9849 12.5321 23.0287 12.3482 23.0204 12.1603L22.1026 12.1602ZM35.1574 15.5723C35.1572 15.4123 35.2901 15.2825 35.4541 15.2823H35.4547C35.6186 15.2821 35.7517 15.4116 35.7519 15.5715V15.5723C35.7519 15.7323 35.6188 15.862 35.4547 15.8621C35.2905 15.862 35.1575 15.7323 35.1574 15.5723ZM35.4547 15.7925C35.5793 15.7926 35.6804 15.6941 35.6805 15.5726V15.5724C35.6806 15.4507 35.5795 15.3521 35.4549 15.352H35.4547C35.3298 15.352 35.2287 15.4507 35.2286 15.5724C35.2287 15.694 35.3299 15.7925 35.4547 15.7925ZM35.4145 15.699H35.3535V15.4449H35.464C35.4868 15.4449 35.5106 15.4453 35.5304 15.4576C35.5518 15.4717 35.564 15.4959 35.564 15.5213C35.564 15.55 35.5467 15.5769 35.5184 15.5871L35.5667 15.6989H35.499L35.459 15.5985H35.4144L35.4145 15.699ZM35.4145 15.555H35.448C35.4606 15.555 35.4743 15.556 35.4853 15.55C35.4954 15.5438 35.5005 15.532 35.5005 15.5206C35.5001 15.5101 35.4947 15.5004 35.4858 15.4945C35.4753 15.4886 35.458 15.4903 35.4467 15.4903H35.4144L35.4145 15.555Z" fill="white"/>
</svg>
