<svg width="42" height="27" viewBox="0 0 42 27" fill="none" xmlns="http://www.w3.org/2000/svg">
<path d="M38 1H4C2.34315 1 1 2.34315 1 4V23C1 24.6569 2.34315 26 4 26H38C39.6569 26 41 24.6569 41 23V4C41 2.34315 39.6569 1 38 1Z" fill="white" stroke="#AEAEAE" stroke-width="0.5"/>
<path d="M9.63488 9.46758C9.20416 9.17888 8.64211 9.03418 7.94872 9.03418H5.26431C5.05175 9.03418 4.93431 9.13783 4.912 9.34493L3.82154 16.0189C3.8102 16.0845 3.82703 16.1444 3.87185 16.1989C3.91641 16.2535 3.97246 16.2807 4.03959 16.2807H5.31467C5.53831 16.2807 5.66123 16.1773 5.6838 15.9699L5.98575 14.1706C5.99677 14.0834 6.03611 14.0125 6.10323 13.9579C6.17031 13.9034 6.25421 13.8678 6.35488 13.8515C6.45554 13.8353 6.55047 13.8271 6.64011 13.8271C6.72949 13.8271 6.8357 13.8326 6.95893 13.8435C7.08185 13.8543 7.16021 13.8597 7.1938 13.8597C8.15565 13.8597 8.91062 13.5954 9.45878 13.0663C10.0067 12.5375 10.2809 11.8042 10.2809 10.8661C10.2809 10.2227 10.0654 9.75658 9.63488 9.46743V9.46758ZM8.25083 11.4716C8.19473 11.8533 8.04949 12.104 7.81462 12.224C7.5797 12.3442 7.24416 12.404 6.808 12.404L6.25431 12.4203L6.53959 10.6699C6.56185 10.5501 6.63452 10.4901 6.75765 10.4901H7.07652C7.5237 10.4901 7.84826 10.5529 8.0496 10.6781C8.25083 10.8036 8.31796 11.0682 8.25083 11.4716Z" fill="#003087"/>
<path d="M37.9637 9.03394H36.7223C36.5989 9.03394 36.5263 9.09394 36.5041 9.21399L35.4135 16.019L35.3967 16.0517C35.3967 16.1065 35.4191 16.158 35.464 16.2071C35.5084 16.2561 35.5646 16.2807 35.6317 16.2807H36.7391C36.9513 16.2807 37.0688 16.1773 37.0915 15.9699L38.182 9.27944V9.26319C38.1819 9.11044 38.109 9.03414 37.9637 9.03414V9.03394Z" fill="#009CDE"/>
<path d="M22.9646 11.668C22.9646 11.6136 22.9421 11.5617 22.8976 11.5127C22.8528 11.4637 22.8024 11.439 22.7466 11.439H21.4548C21.3315 11.439 21.2308 11.4938 21.1527 11.6025L19.3743 14.1545L18.6361 11.7008C18.5799 11.5264 18.457 11.439 18.267 11.439H17.0085C16.9524 11.439 16.9021 11.4636 16.8577 11.5127C16.8128 11.5617 16.7905 11.6137 16.7905 11.668C16.7905 11.6899 16.8996 12.0115 17.1177 12.6331C17.3357 13.2549 17.5706 13.9256 17.8223 14.6454C18.074 15.3651 18.2053 15.747 18.2165 15.7902C17.2993 17.0118 16.8409 17.6661 16.8409 17.7532C16.8409 17.8951 16.9135 17.9659 17.059 17.9659H18.3508C18.4738 17.9659 18.5744 17.9115 18.6529 17.8024L22.9312 11.7824C22.9534 11.7608 22.9646 11.7228 22.9646 11.6679V11.668Z" fill="#003087"/>
<path d="M34.9944 11.439H33.7193C33.5625 11.439 33.4678 11.619 33.4342 11.9789C33.143 11.5428 32.6121 11.3245 31.8401 11.3245C31.0349 11.3245 30.3497 11.619 29.785 12.2079C29.2201 12.7968 28.9377 13.4895 28.9377 14.2855C28.9377 14.929 29.1307 15.4415 29.5165 15.8231C29.9024 16.205 30.4196 16.3956 31.0686 16.3956C31.3929 16.3956 31.7228 16.3301 32.0583 16.1993C32.3939 16.0685 32.6565 15.8941 32.847 15.6759C32.847 15.6868 32.8356 15.7357 32.8135 15.8229C32.7909 15.9103 32.7798 15.976 32.7798 16.0192C32.7798 16.1939 32.8523 16.2809 32.998 16.2809H34.1557C34.368 16.2809 34.4911 16.1775 34.5246 15.9702L35.2126 11.7007C35.2236 11.6352 35.2069 11.5753 35.1622 11.5207C35.1172 11.4663 35.0615 11.439 34.9944 11.439ZM32.805 14.6617C32.5197 14.9343 32.1757 15.0706 31.7731 15.0706C31.4486 15.0706 31.186 14.9835 30.9846 14.8089C30.7831 14.6348 30.6825 14.3948 30.6825 14.0891C30.6825 13.6859 30.8223 13.3448 31.102 13.0668C31.3813 12.7887 31.7283 12.6497 32.1422 12.6497C32.4551 12.6497 32.7152 12.7396 32.9223 12.9195C33.1291 13.0995 33.2328 13.3476 33.2328 13.6639C33.2327 14.0565 33.0901 14.3892 32.805 14.6617Z" fill="#009CDE"/>
<path d="M15.9347 11.439H14.6596C14.5028 11.439 14.4079 11.619 14.3743 11.9789C14.0723 11.5428 13.541 11.3245 12.7804 11.3245C11.9751 11.3245 11.2899 11.619 10.7252 12.2079C10.1602 12.7968 9.87793 13.4895 9.87793 14.2855C9.87793 14.929 10.0709 15.4415 10.4568 15.8231C10.8427 16.205 11.3599 16.3956 12.0087 16.3956C12.3217 16.3956 12.6463 16.3301 12.9818 16.1993C13.3173 16.0685 13.5858 15.8941 13.7871 15.6759C13.7422 15.8066 13.72 15.9212 13.72 16.0192C13.72 16.1939 13.7926 16.2809 13.9381 16.2809H15.0957C15.3081 16.2809 15.4312 16.1775 15.4648 15.9702L16.1527 11.7007C16.1637 11.6352 16.147 11.5753 16.1024 11.5207C16.0576 11.4663 16.0018 11.439 15.9347 11.439ZM13.7453 14.6698C13.46 14.9373 13.1103 15.0706 12.6967 15.0706C12.3721 15.0706 12.1121 14.9835 11.9165 14.8089C11.7206 14.6348 11.6228 14.3948 11.6228 14.0891C11.6228 13.6859 11.7626 13.3448 12.0423 13.0668C12.3218 12.7887 12.6685 12.6496 13.0825 12.6496C13.3956 12.6496 13.6556 12.7396 13.8627 12.9195C14.0695 13.0995 14.1731 13.3476 14.1731 13.6639C14.173 14.0674 14.0305 14.4029 13.7453 14.6698Z" fill="#003087"/>
<path d="M28.6943 9.46758C28.2636 9.17888 27.7017 9.03418 27.0082 9.03418H24.3405C24.1168 9.03418 23.9936 9.13783 23.9714 9.34493L22.8809 16.0189C22.8695 16.0845 22.8864 16.1444 22.9312 16.1989C22.9756 16.2535 23.0318 16.2807 23.0989 16.2807H24.4746C24.6088 16.2807 24.6982 16.2099 24.7431 16.0681L25.0451 14.1706C25.0562 14.0834 25.0954 14.0125 25.1626 13.9579C25.2297 13.9034 25.3135 13.8678 25.4143 13.8515C25.5149 13.8353 25.6098 13.8271 25.6995 13.8271C25.7889 13.8271 25.8951 13.8326 26.0182 13.8435C26.1412 13.8543 26.2197 13.8597 26.2531 13.8597C27.2151 13.8597 27.9699 13.5954 28.5181 13.0663C29.0662 12.5375 29.3402 11.8042 29.3402 10.8661C29.3402 10.2227 29.1248 9.75653 28.6943 9.46743V9.46758ZM26.9747 12.1585C26.7286 12.3221 26.3594 12.4038 25.8674 12.4038L25.3304 12.4202L25.6156 10.6698C25.6378 10.55 25.7105 10.4899 25.8337 10.4899H26.1356C26.3817 10.4899 26.5774 10.5009 26.723 10.5226C26.8681 10.5445 27.0082 10.6126 27.1424 10.727C27.2767 10.8416 27.3437 11.008 27.3437 11.226C27.3437 11.6842 27.2206 11.9948 26.9747 12.1585Z" fill="#009CDE"/>
</svg>
