<svg width="42" height="27" viewBox="0 0 42 27" fill="none" xmlns="http://www.w3.org/2000/svg">
<path d="M38 1H4C2.34315 1 1 2.34315 1 4V23C1 24.6569 2.34315 26 4 26H38C39.6569 26 41 24.6569 41 23V4C41 2.34315 39.6569 1 38 1Z" fill="white" stroke="#AEAEAE" stroke-width="0.5"/>
<path d="M16.0359 18.4366L17.7466 8.64859H20.4829L18.7709 18.4366H16.0359ZM28.6569 8.85959C28.1149 8.66129 27.2653 8.44849 26.2045 8.44849C23.5006 8.44849 21.5962 9.77604 21.5799 11.6787C21.5646 13.0851 22.9396 13.8698 23.9775 14.3379C25.0427 14.8178 25.4007 15.1237 25.3955 15.5521C25.3887 16.2082 24.545 16.5078 23.7584 16.5078C22.6633 16.5078 22.0814 16.3595 21.1828 15.9942L20.8301 15.8386L20.4461 18.0297C21.0852 18.3031 22.267 18.5397 23.4942 18.552C26.3706 18.552 28.2379 17.2396 28.2591 15.2077C28.2693 14.0942 27.5404 13.247 25.9617 12.5483C25.0052 12.0955 24.4195 11.7934 24.4257 11.3349C24.4257 10.928 24.9215 10.493 25.9929 10.493C26.8875 10.4794 27.5359 10.6697 28.0409 10.868L28.2861 10.9809L28.6569 8.85959ZM35.6984 8.64844H33.5841C32.9291 8.64844 32.4388 8.82274 32.1512 9.46014L28.0874 18.4301H30.9608C30.9608 18.4301 31.4305 17.2241 31.5367 16.9592C31.8507 16.9592 34.6421 16.9634 35.0411 16.9634C35.123 17.3061 35.3741 18.4301 35.3741 18.4301H37.9131L35.6984 8.64814V8.64844ZM32.3437 14.9689C32.5701 14.405 33.434 12.2327 33.434 12.2327C33.4179 12.2588 33.6586 11.666 33.7967 11.2985L33.9817 12.1424C33.9817 12.1424 34.5056 14.4789 34.6151 14.9688H32.3437V14.9689ZM13.7129 8.64844L11.034 15.3234L10.7486 13.967C10.2499 12.4033 8.69606 10.7091 6.95898 9.86099L9.40857 18.421L12.3037 18.4178L16.6116 8.64834L13.7129 8.64829" fill="#0E4595"/>
<path d="M8.53425 8.64795H4.12189L4.08691 8.8516C7.51968 9.6618 9.79102 11.6197 10.7341 13.9726L9.77466 9.4746C9.60907 8.8548 9.12866 8.6698 8.53435 8.6482" fill="#F2AE14"/>
</svg>
